<?xml version="1.0" encoding="UTF-8"?>
<svg id="Layer_1" xmlns="http://www.w3.org/2000/svg" version="1.1" viewBox="0 0 25 25">
  <!-- Generator: Adobe Illustrator 29.3.1, SVG Export Plug-In . SVG Version: 2.1.0 Build 151)  -->
  <defs>
    <style>
      .st0 {
        fill: #0a4020;
      }
    </style>
  </defs>
  <g id="layer1">
    <path class="st0" d="M12.4,0h-.7s-.7.1-.7.1h-.6c0,.1-.6.3-.6.3l-.6.2-.6.3-.6.3-.5.4-.5.4-.5.5-.4.5-.4.5-.3.6-.3.6-.2.6-.2.6v.6c-.1,0-.2.6-.2.6v.7s0,.7,0,.7v.7c0,0,.2.6.2.6l.2.6v.2c0,0-2.2,0-2.2,0v1.8h2.7v.9c.1,0,.2.9.2.9v.9s0,.9,0,.9v.9c0,0-.2.9-.2.9l-.2.9-.2.9-.2.8-.3.8-.3.8-.4.8-.4.8,1.4,1.4.7-.4.7-.3.7-.3.8-.2.8-.2h.8c0-.1.8-.2.8-.2h.8s.8,0,.8,0h.8c0,0,.8.2.8.2l.8.2.8.2.8.3.7.3.5.2.6.2h.6c0,.1.6.2.6.2h.6s.6,0,.6,0h.6c0-.1.6-.3.6-.3l.5-.2.5-.3.5-.3.5-.3.4-.4-1.3-1.3-.4.3-.4.3-.4.2-.5.2h-.5c0,.1-.5.2-.5.2h-.5s-.5,0-.5,0h-.5c0,0-.5-.2-.5-.2l-.5-.2-.8-.3-.8-.3-.8-.2-.9-.2h-.9c0-.1-.9-.2-.9-.2h-.9s-.9,0-.9,0h-.9c0,0-.9.2-.9.2l-.9.2-.8.2-.8.3.3-.8.3-.9.3-.9.2-.9.2-.9v-.9c.1,0,.2-.9.2-.9v-.9s0-.9,0-.9v-.9c0,0-.2-.9-.2-.9h6.2v-1.8h-6.6l-.2-.8v-.6c-.1,0-.2-.6-.2-.6v-.6s0-.6,0-.6v-.6c0,0,.2-.6.2-.6l.2-.6.2-.5.3-.5.3-.5.4-.5.4-.4.4-.4.5-.3.5-.3.5-.2.6-.2h.6c0-.1.6-.2.6-.2h.6s.6,0,.6,0h.6c0,0,.6.2.6.2l.6.2.5.2.5.3.5.3.4.4.4.4.4.5.3.5.3.5.2.5.2.6,1.7-.5-.2-.6-.2-.6-.3-.6-.3-.6-.4-.5-.4-.5-.5-.5-.5-.4-.5-.4-.6-.3-.6-.3-.6-.2-.6-.2h-.6c0-.1-.6-.2-.6-.2h-.7Z"/>
  </g>
</svg>