<?xml version="1.0" encoding="UTF-8"?>
<svg id="Layer_1" xmlns="http://www.w3.org/2000/svg" version="1.1" viewBox="0 0 25 25">
  <!-- Generator: Adobe Illustrator 29.3.1, SVG Export Plug-In . SVG Version: 2.1.0 Build 151)  -->
  <defs>
    <style>
      .st0 {
        fill: #0a4020;
      }
    </style>
  </defs>
  <path class="st0" d="M12.8,24.2c-3.2,0-6.1-1.2-8.3-3.5S1,15.5,1,12.4s1.2-6.1,3.5-8.3S9.6.6,12.8.6s6.1,1.2,8.3,3.5,3.5,5.2,3.5,8.3-1.2,6.1-3.5,8.3c-2.2,2.2-5.2,3.5-8.3,3.5ZM12.8,1.9c-2.8,0-5.4,1.1-7.4,3.1-2,2-3.1,4.6-3.1,7.4s1.1,5.4,3.1,7.4c2,2,4.6,3.1,7.4,3.1s5.4-1.1,7.4-3.1,3.1-4.6,3.1-7.4-1.1-5.4-3.1-7.4c-2-2-4.6-3.1-7.4-3.1Z"/>
  <path class="st0" d="M18.7,13h-5.6c-.5,0-1-.4-1-1v-4.3c0-.4.3-.7.7-.7s.7.3.7.7v3.9h5.2c.4,0,.7.3.7.7s-.3.7-.7.7Z"/>
</svg>