<?xml version="1.0" encoding="UTF-8"?>
<svg id="Layer_1" xmlns="http://www.w3.org/2000/svg" version="1.1" viewBox="0 0 689.6 646.9">
  <!-- Generator: Adobe Illustrator 29.5.1, SVG Export Plug-In . SVG Version: 2.1.0 Build 141)  -->
  <defs>
    <style>
      .st0 {
        fill: #1d6265;
      }

      .st1 {
        fill: #c4d92d;
      }
    </style>
  </defs>
  <g>
    <path class="st1" d="M405.5,547.3c19.2-4.4,37-12.4,54-21.9,8.1-4.5,16.9-8.4,23.3-15.3v-231.9c0-3.8-70.3,1.4-76.5-.8-1.6-.2-.7,1.9-.9,2.9v266.9h.1Z"/>
    <path class="st1" d="M204.9,417.4c-.2,0-2.2,2-2.2,2.2v91.9c8.6,5.3,16.9,11.4,26.3,15.3,2.1,3.9,8,4.2,11.7,5.8,12.8,5.7,25.5,11.9,39.4,14.6v-127.6c0-.2-2-2.2-2.2-2.2h-73,0Z"/>
    <path class="st1" d="M304.8,553.1c25.4,2.9,50.5,3,75.9,0v-202.9h-75.9c.2,55.9-.2,111.9,0,167.7,0,8.7-.3,17.6,0,26.3.1,2.9,0,5.9,0,8.8h0Z"/>
    <path class="st0" d="M652.1,617.3c-1.2-1.6-3-1.1-4.4-1.5-3.9-1.2-7.9-1.7-11.7-2.9-6.9-2.1-13.8-5.5-20.8-7.7-33.4-10.3-67-20-100.3-30.3,26.7-18.6,49.3-39.3,70-64.2,10.3-12.4,16.4-21.3,24.8-35,2.7-4.3,6.4-8.8,9-13.6,25-45.7,39.1-98.9,37.7-151.2h-49.6c-.5,52.9-16.6,106.8-46.7,150.2-19.1,27.6-50.2,56.8-78.8,74.4-154.3,94.8-350.4,10.3-395.4-161.9-1.4-5.4-3-12.4-4-19.1,0-.9,0-1.8-.4-2.8-11-83.6,6.2-139.2,49.6-208.6,10.5-11.1,19.5-23.7,30.6-34.3,12.7-12,27.9-21.1,40.9-32.8,10-3.2,20.4-11.3,30.1-15.8,30.3-14.2,55.9-18.5,88.1-25,41.5-3.1,84.6.7,124,14.6,30.5,10.8,64.5,31.4,89,52.5,7.9,6.8,19.5,17.2,26.3,24.8,17.1,19.3,37.8,51.9,48.2,75.9,7.7,17.8,12.9,36.7,17.5,55.4l5.8,33.5c1.4-13.5-2-26.3-4.4-39.4-3.6-19.6-7.6-33.9-14.6-52.5-17.2-46-42.1-82.6-78.8-115.2-32.9-29.2-65.9-48-108-61.3h-.3.3c-3.7-1.2-6.4-1.9-10.2-2.9-2-.6-3.8-1-5.8-1.5-1.1-.3-2.5-1-4.4-1.5C139.7-43.3-68.5,243.2,75.7,475.8c8.2,13.2,14.8,22.9,24.8,35,20.8,25.1,43.5,45.1,70,64.2-33.3,10.4-66.9,20-100.3,30.3-7,2.1-14.2,5.7-20.8,7.7-1.4.4-39.4,11.7-39.4,11.7h52.5c179,.3,358,.2,536.9,0h75.9l-23.3-7.3h.1Z"/>
  </g>
  <path class="st0" d="M490.9,123.9c-11.8,5.4-23.7,10.9-35.5,16.3l12.6,8-97.1,153.6c-1.5,2.3-3.9,3.7-6.6,3.7s-5.2-1.2-6.8-3.5c-3.3-4.9-8.9-7.8-14.9-7.8s-11.4,2.9-14.7,7.7l-55.1,78.4c-1.4,2-3.6,3.2-6,3.4-2.4.2-4.8-.8-6.4-2.6l-13.4-14.5c-3.4-3.6-7.9-5.7-12.9-5.8-4.9-.1-9.6,1.8-13.1,5.3l-73.7,73.7,7.1,7.1,73.7-73.7c1.5-1.5,3.6-2.3,5.8-2.3s0,0,0,0c2.2,0,4.2,1,5.7,2.6l13.4,14.5c3.7,4,9,6.1,14.4,5.7,5.5-.4,10.4-3.1,13.5-7.6l55.1-78.4c1.5-2.2,3.9-3.4,6.6-3.4s5.1,1.3,6.6,3.5c3.5,5,9.1,7.9,15.2,7.8s11.6-3.3,14.9-8.4l97.1-153.6,12.7,8c.6-12.6,1.2-25.1,1.8-37.7h0Z"/>
</svg>