<?xml version="1.0" encoding="UTF-8"?>
<svg id="Layer_1" xmlns="http://www.w3.org/2000/svg" version="1.1" viewBox="0 0 3425.6 621.4">
  <!-- Generator: Adobe Illustrator 29.5.1, SVG Export Plug-In . SVG Version: 2.1.0 Build 141)  -->
  <defs>
    <style>
      .st0 {
        fill: #c4d92d;
      }

      .st1 {
        fill: #1d6265;
      }

      .st2 {
        display: none;
      }
    </style>
  </defs>
  <g>
    <path class="st0" d="M423.8,543.9c19.2-4.4,37-12.4,54-21.9,8.1-4.5,16.9-8.4,23.3-15.3v-231.9c0-3.8-70.3,1.4-76.5-.8-1.6-.2-.7,1.9-.9,2.9v266.9Z"/>
    <path class="st0" d="M223.2,414c-.2,0-2.2,2-2.2,2.2v91.9c8.6,5.3,16.9,11.4,26.3,15.3,2.1,3.9,8,4.2,11.7,5.8,12.8,5.7,25.5,11.9,39.4,14.6v-127.6c0-.2-2-2.2-2.2-2.2h-73Z"/>
    <path class="st0" d="M323.1,549.7c25.4,2.9,50.5,3,75.9,0,0-28.2,0-56.4,0-84.6,0-2.9,0-5.8,0-8.8,0-1.5,0-2.9,0-4.4,0-3.9,0-7.8,0-11.7,0-31.1,0-62.3,0-93.4h-75.9c.2,55.9-.2,111.9,0,167.7,0,8.7-.3,17.6,0,26.3.1,2.9,0,5.9,0,8.8Z"/>
    <path class="st1" d="M670.4,613.9c-1.2-1.6-3-1.1-4.4-1.5-3.9-1.2-7.9-1.7-11.7-2.9-6.9-2.1-13.8-5.5-20.8-7.7-33.4-10.3-67-20-100.3-30.3,26.7-18.6,49.3-39.3,70-64.2,10.3-12.4,16.4-21.3,24.8-35,2.7-4.3,6.4-8.8,9-13.6,25-45.7,39.1-98.9,37.7-151.2h-49.6c-.5,52.9-16.6,106.8-46.7,150.2-19.1,27.6-50.2,56.8-78.8,74.4-154.3,94.8-350.4,10.3-395.4-161.9-1.4-5.4-3-12.4-4-19.1,0-.9-.1-1.8-.4-2.8-11-83.6,6.2-139.2,49.6-208.6,10.5-11.1,19.5-23.7,30.6-34.3,12.7-12,27.9-21.1,40.9-32.8,10-3.2,20.4-11.3,30.1-15.8,30.3-14.2,55.9-18.5,88.1-25,41.5-3.1,84.6.7,124,14.6,30.5,10.8,64.5,31.4,89,52.5,7.9,6.8,19.5,17.2,26.3,24.8,17.1,19.3,37.8,51.9,48.2,75.9,7.7,17.8,12.9,36.7,17.5,55.4l5.8,33.5c1.4-13.5-2-26.3-4.4-39.4-3.6-19.6-7.6-33.9-14.6-52.5-17.2-46-42.1-82.6-78.8-115.2-32.9-29.2-65.9-48-108-61.3-.1,0-.2,0-.3,0,.1,0,.2,0,.3,0-3.7-1.2-6.4-1.9-10.2-2.9-2-.6-3.8-1-5.8-1.5-1.1-.3-2.5-1-4.4-1.5C158-46.7-50.2,239.8,94,472.4c8.2,13.2,14.8,22.9,24.8,35,20.8,25.1,43.5,45.1,70,64.2-33.3,10.4-66.9,20-100.3,30.3-7,2.1-14.2,5.7-20.8,7.7-1.4.4-39.4,11.7-39.4,11.7,17.5,0,35,0,52.5,0,179,.3,358,.2,536.9,0,2.9,0,5.8,0,8.8,0,4.9,0,9.7,0,14.6,0,9.2,0,18.5,0,27.7,0,8.3,0,16.5,0,24.8,0l-23.3-7.3Z"/>
  </g>
  <g>
    <g>
      <path class="st1" d="M767.3,261.4c0-105.7,67.3-175.3,168.5-175.3s145.6,48.5,156.1,124.5h-78.3c-10.1-33.9-38.9-53.1-79.6-53.1s-88.3,38.9-88.3,103.5,33.9,103.5,88.3,103.5,72.3-20.6,81.5-54h76.9c-11.9,75.5-75.1,125.4-159.8,125.4s-165.2-67.3-165.2-174.4Z"/>
      <path class="st1" d="M1141.7,430.3V91.6h130.9c82.4,0,129.1,39.8,129.1,109.9s-18.8,75.1-56.3,94.3l59.5,134.6h-81l-50.8-118.6h-57.2v118.6h-74.2ZM1215.8,246.8h56.3c32.5,0,51.3-16.5,51.3-45.3s-17.9-43.9-50.8-43.9h-56.8v89.3Z"/>
      <path class="st1" d="M1456.6,430.3V91.6h215.1v68.7h-141v66.4h125v65h-125v70h141v68.7h-215.1Z"/>
      <path class="st1" d="M1732.6,430.3V91.6h128.2c99.3,0,168.5,69.6,168.5,170.3s-67.3,168.5-163.9,168.5h-132.7ZM1806.8,160.3v201.4h51.3c58.6,0,92.9-37.1,92.9-99.8s-36.2-101.6-97.5-101.6h-46.7Z"/>
      <path class="st1" d="M2155.1,430.3h-74.2V91.6h74.2v338.7Z"/>
      <path class="st1" d="M2299.8,317.7v112.6h-74.2V91.6h137.3c69.1,0,115.4,45.3,115.4,113.1s-46.2,113.1-115.4,113.1h-63.2ZM2299.8,157.5v94.3h46.7c35.7,0,53.6-15.6,53.6-47.1s-17.9-47.1-53.6-47.1h-46.7Z"/>
      <path class="st1" d="M2473.2,430.3l120.8-338.7h72.3l120.4,338.7h-78.7l-23.8-71.4h-109.4l-24.3,71.4h-77.4ZM2596.4,296.7h66.8l-24.3-72.3c-3.7-11.4-7.8-24.7-9.2-33-1.4,7.8-5,20.6-9.2,33l-24.3,72.3Z"/>
      <path class="st1" d="M2770.3,91.6h266.4v68.7h-96.1v270.1h-74.2V160.3h-96.1v-68.7Z"/>
      <path class="st1" d="M3081.1,430.3V91.6h74.2v133.7h130.9V91.6h74.2v338.7h-74.2v-136.4h-130.9v136.4h-74.2Z"/>
    </g>
    <g>
      <path class="st1" d="M818.8,584.9l32.3-87.3h8.7l32.7,87.3h-6l-9.2-24.5h-43.5l-9.1,24.5h-5.9ZM835.8,555.1h39.6l-19.2-51.1c-.2-.7-.6-1.6-.7-2.2-.1.5-.5,1.6-.7,2.2l-18.9,51.1Z"/>
      <path class="st1" d="M925.1,541.3c0-26.7,16.7-45.1,40.9-45.1s32.3,11.1,36.1,27.7h-6.5c-3.9-13.5-15.5-22-30-22-20.5,0-34.5,16-34.5,39.5s14,39.3,34.5,39.3,26.4-8.1,30.5-20.7h6.5c-4.2,15.7-19.2,26.3-37.1,26.3s-40.4-18.4-40.4-45Z"/>
      <path class="st1" d="M1041.4,541.3c0-26.7,16.7-45.1,40.9-45.1s32.3,11.1,36.1,27.7h-6.5c-3.9-13.5-15.5-22-30-22-20.5,0-34.5,16-34.5,39.5s14,39.3,34.5,39.3,26.4-8.1,30.5-20.7h6.5c-4.2,15.7-19.2,26.3-37.1,26.3s-40.4-18.4-40.4-45Z"/>
      <path class="st1" d="M1198.9,586.4c-24.2,0-41.2-18.7-41.2-45.1s17.1-45.1,41.2-45.1,41.3,18.7,41.3,45.1-17.1,45.1-41.3,45.1ZM1198.9,501.8c-20.7,0-35.2,16.2-35.2,39.5s14.5,39.5,35.2,39.5,35.3-16.2,35.3-39.5-14.5-39.5-35.3-39.5Z"/>
      <path class="st1" d="M1284.4,497.7h5.9v57.5c0,16.5,9,25.4,25.4,25.4s25.1-9.1,25.1-25.4v-57.5h5.9v57.7c0,19.4-11.6,31.1-31,31.1s-31.3-11.6-31.3-31.1v-57.7Z"/>
      <path class="st1" d="M1396.5,584.9v-87.3h6l51.1,77.3v-77.3h5.9v87.3h-5.9l-51.3-77.6v77.6h-5.9Z"/>
      <path class="st1" d="M1500.2,497.7h60.7v5.4h-27.4v81.9h-5.9v-81.9h-27.4v-5.4Z"/>
      <path class="st1" d="M1584.2,584.9l32.3-87.3h8.7l32.7,87.3h-6l-9.2-24.5h-43.5l-9.1,24.5h-5.9ZM1601.2,555.1h39.6l-19.2-51.1c-.2-.7-.6-1.6-.7-2.2-.1.5-.5,1.6-.7,2.2l-18.9,51.1Z"/>
      <path class="st1" d="M1699.2,584.9v-87.3h6l51.1,77.3v-77.3h5.9v87.3h-5.9l-51.3-77.6v77.6h-5.9Z"/>
      <path class="st1" d="M1807.1,541.3c0-26.7,16.7-45.1,40.9-45.1s32.3,11.1,36.1,27.7h-6.5c-3.9-13.5-15.5-22-30-22-20.5,0-34.5,16-34.5,39.5s14,39.3,34.5,39.3,26.4-8.1,30.5-20.7h6.5c-4.2,15.7-19.2,26.3-37.1,26.3s-40.4-18.4-40.4-45Z"/>
      <path class="st1" d="M1915.4,497.7h6.8l23.4,40.3c.9,1.5,1.6,2.8,2.5,4.7,1.1-2.2.7-1.6,2.5-4.7l23.1-40.3h6.5l-29.1,49.9v37.4h-5.9v-37.4l-29.6-49.9Z"/>
      <path class="st1" d="M2132.1,574.7c-6.6,7.5-16.3,11.8-28.1,11.8-18.2,0-29.7-9.1-29.7-23.4s6.4-19.2,23.1-28.8c-8.4-9.7-11.8-15.1-11.8-21.3,0-10.1,7.4-16.8,18.6-16.8s17.8,6.4,17.8,16.1-4.7,15.2-16.3,23.1l26.4,30.7c3-5.4,4.4-12.3,4.4-20.4h5.5c0,9.6-2.3,17.9-6.5,24.6l12.5,14.5h-7l-8.9-10.2ZM2103.8,581.5c10.9,0,19.5-3.7,25.1-10.6l-28.3-32.7c-15.4,8.6-20.8,15.1-20.8,25s9,18.3,24,18.3ZM2102.2,531.7c9.7-6,14-12,14-19.3s-4.7-11.1-12.3-11.1-12.8,4.5-12.8,11.8,2,8,10.6,17.9l.5.6Z"/>
      <path class="st1" d="M2237.3,584.9l32.3-87.3h8.7l32.7,87.3h-6l-9.2-24.5h-43.5l-9.1,24.5h-5.9ZM2254.3,555.1h39.6l-19.2-51.1c-.2-.7-.6-1.6-.7-2.2-.1.5-.5,1.6-.7,2.2l-18.9,51.1Z"/>
      <path class="st1" d="M2352.2,584.9v-87.3h24.5c26.4,0,44,17.5,44,43.6s-17.6,43.6-44,43.6h-24.5ZM2358.1,503.1v76.5h18.6c23,0,38-15,38-38.2s-14.8-38.2-38-38.2h-18.6Z"/>
      <path class="st1" d="M2452.7,497.7h6.3l25.2,65.3c1.8,4.7,3.6,9.2,5.4,14.9,1.8-5.8,4.2-12.2,5.3-15l25.1-65.2h6l-33.4,87.3h-6.3l-33.6-87.3Z"/>
      <path class="st1" d="M2572.4,584.9h-5.9v-87.3h5.9v87.3Z"/>
      <path class="st1" d="M2645.8,496.2c15,0,25,8.4,26.7,22.4h-6.1c-1.2-10.8-8.6-17-20.5-17s-22.5,7.1-22.5,18.1,5,13.9,15,16.5l15.5,3.9c13.2,3.3,20.2,11.2,20.2,22.4s-11.3,24-28.8,24-27.4-8.5-28.8-22.1h6.3c.5,10,9.5,16.6,22.5,16.6s22.9-7.1,22.9-18.3-5-14.4-15.4-17l-15.1-3.8c-13.2-3.3-20.2-10.8-20.2-22.1s11.2-23.5,28.4-23.5Z"/>
      <path class="st1" d="M2754.4,586.4c-24.2,0-41.2-18.7-41.2-45.1s17.1-45.1,41.2-45.1,41.3,18.7,41.3,45.1-17.1,45.1-41.3,45.1ZM2754.4,501.8c-20.7,0-35.2,16.2-35.2,39.5s14.5,39.5,35.2,39.5,35.3-16.2,35.3-39.5-14.5-39.5-35.3-39.5Z"/>
      <path class="st1" d="M2840.6,584.9v-87.3h32.2c16.6,0,27,9.6,27,24.5s-7.1,21.9-18.8,24.3l19.5,38.5h-6.6l-19.1-37.7h-28.4v37.7h-5.9ZM2846.5,541.8h26.6c13.2,0,20.8-7.4,20.8-19.4s-8.2-19.3-21-19.3h-26.3v38.7Z"/>
      <path class="st1" d="M2934.9,497.7h6.8l23.4,40.3c.9,1.5,1.6,2.8,2.5,4.7,1.1-2.2.7-1.6,2.5-4.7l23.1-40.3h6.5l-29.1,49.9v37.4h-5.9v-37.4l-29.6-49.9Z"/>
      <path class="st1" d="M3108.7,579.5h41.5v5.4h-47.4v-87.3h5.9v81.9Z"/>
      <path class="st1" d="M3173.6,497.7h60.7v5.4h-27.4v81.9h-5.9v-81.9h-27.4v-5.4Z"/>
      <path class="st1" d="M3274.9,584.9v-87.3h24.5c26.4,0,44,17.5,44,43.6s-17.6,43.6-44,43.6h-24.5ZM3280.8,503.1v76.5h18.6c23,0,38-15,38-38.2s-14.8-38.2-38-38.2h-18.6Z"/>
    </g>
  </g>
  <g class="st2">
    <g>
      <path class="st1" d="M178.5,839.9c-.4.2-.7.3-.7.3,0,0,.3-.1.7-.3Z"/>
      <path class="st1" d="M554.1,640.5h-25.2l3.4,7.6-118.9,48.2-.6.2-.4.3s-100.4,86-100.4,86c2-1.1-123.1,52.6-133.7,57.1,10.6-4.3,135.4-53.8,136-54.3l102-83.1c1-.4,119.9-45.2,119.9-45.2,0,0-.5-1.4-.8-2.1l4.4,9.6,14.2-24.1Z"/>
    </g>
  </g>
  <path class="st1" d="M509.2,120.5c-11.8,5.4-23.7,10.9-35.5,16.3l12.6,8-97.1,153.6c-1.5,2.3-3.9,3.7-6.6,3.7-2.8,0-5.2-1.2-6.8-3.5-3.3-4.9-8.9-7.8-14.9-7.8-5.9,0-11.4,2.9-14.7,7.7l-55.1,78.4c-1.4,2-3.6,3.2-6,3.4-2.4.2-4.8-.8-6.4-2.6l-13.4-14.5c-3.4-3.6-7.9-5.7-12.9-5.8-4.9-.1-9.6,1.8-13.1,5.3l-73.7,73.7,7.1,7.1,73.7-73.7c1.5-1.5,3.6-2.3,5.8-2.3s0,0,0,0c2.2,0,4.2,1,5.7,2.6l13.4,14.5c3.7,4,9,6.1,14.4,5.7,5.5-.4,10.4-3.1,13.5-7.6l55.1-78.4c1.5-2.2,3.9-3.4,6.6-3.4,2.7,0,5.1,1.3,6.6,3.5,3.5,5,9.1,7.9,15.2,7.8,6.1-.1,11.6-3.3,14.9-8.4l97.1-153.6,12.7,8c.6-12.6,1.2-25.1,1.8-37.7Z"/>
</svg>