<?xml version="1.0" encoding="UTF-8"?>
<svg id="Layer_1" xmlns="http://www.w3.org/2000/svg" version="1.1" viewBox="0 0 905.3 537.5">
  <!-- Generator: Adobe Illustrator 29.3.1, SVG Export Plug-In . SVG Version: 2.1.0 Build 151)  -->
  <defs>
    <style>
      .st0 {
        fill: #1d6265;
      }

      .st1, .st2 {
        fill: #fff;
      }

      .st3, .st2 {
        isolation: isolate;
      }

      .st3, .st4 {
        display: none;
      }

      .st2 {
        font-family: Adoha, Adoha;
        font-size: 404px;
      }

      .st5 {
        fill: #c4d92d;
      }
    </style>
  </defs>
  <g>
    <path class="st5" d="M265.7,50.5v204.2l-19.2,15-66.9-44.6-84.7,68.9V50.5c0-7.6,6.2-13.8,13.8-13.8h143.2c7.6,0,13.8,6.2,13.8,13.8Z"/>
    <path class="st0" d="M265.7,296v195.5c0,7.6-6.2,13.8-13.8,13.8H108.8c-7.6,0-13.8-6.2-13.8-13.8v-191.9l81.6-36.3,68.2,48.9,21-16.2h0Z"/>
    <path class="st5" d="M825.2,62.9h-45l23.5,14.8-135.1,93.2-14.1-41.5V50.5c0-7.6,6.2-13.8,13.8-13.8h143.2c7.6,0,13.8,6.2,13.8,13.8v12.4h0Z"/>
    <path class="st0" d="M825.2,89.3v402.2c0,7.6-6.2,13.8-13.8,13.8h-143.2c-7.6,0-13.8-6.2-13.8-13.8V205.9l12.5-8.1,158.3-108.6h0Z"/>
    <path class="st5" d="M638.7,50.5v43.6l-152.1,142.6-18.6-11.2V50.5c0-7.6,6.2-13.8,13.8-13.8h143.2c7.6,0,13.8,6.2,13.8,13.8h0Z"/>
    <path class="st0" d="M638.7,173.8v317.7c0,7.6-6.2,13.8-13.8,13.8h-143.2c-7.6,0-13.8-6.2-13.8-13.8v-232.9l24.2,12.4,133.9-123,12.6,25.8h.1Z"/>
    <path class="st5" d="M452.2,50.5v165.4l-46.8-28.2-30.2-18.2-93.7,72.9V50.5c0-7.6,6.2-13.8,13.8-13.8h143.2c7.6,0,13.8,6.2,13.8,13.8h0Z"/>
    <path class="st0" d="M452.2,250.5v241c0,7.6-6.2,13.8-13.8,13.8h-143.2c-7.6,0-13.8-6.2-13.8-13.8v-207.7l93.9-72.8,76.9,39.5Z"/>
    <path class="st1" d="M172.6,453.4v3.9h-46.3v-3.9h.6c6.6,0,11.1-4.4,11.1-11.1v-105.6c0-6.5-4.4-10.9-11.1-10.9h-.6v-3.9h65.9c24.7,0,41.2,16.4,41.2,41.9s-15.1,40-38.4,41.2l27.5,39.3c3.9,5.4,10.7,9,17.3,9h.6v3.9h-24.9c-6.6,0-13.5-3.7-17.3-9l-30.1-43.2h-6.8v37.3c0,6.6,4.4,11.1,10.9,11.1h.6-.2ZM172.8,401.2c22.5,0,37.5-14.8,37.5-38s-14.9-37.3-37.5-37.3h-11.6v75.3h11.6Z"/>
    <path class="st1" d="M392.1,453.4v3.9h-46.3v-3.9h.6c6.6,0,11.1-4.4,11.1-11.1v-105.6c0-6.5-4.4-10.9-11.1-10.9h-.6v-3.9h46.3v3.9h-.6c-6.5,0-10.9,4.4-10.9,10.9v105.6c0,6.6,4.4,11.1,10.9,11.1h.6Z"/>
    <path class="st1" d="M539.5,325.9c-17,0-31.7,10.7-37.1,26.8l-.7,2.2h-3.9l9.6-32.8h96l9.6,32.8h-3.9l-.7-2.2c-5.4-16.1-20.1-26.8-37.1-26.8h-4.2v116.4c0,6.6,4.4,11.1,11.1,11.1h.6v3.9h-46.5v-3.9h.7c6.5,0,10.9-4.4,10.9-11.1v-116.4h-4.4Z"/>
    <path class="st1" d="M745.9,453.4c17,0,31.7-10.7,37.1-26.9l.9-2h3.7l-9.6,32.8h-81.9v-3.9l65.5-127.5h-23.8c-17,0-31.7,10.5-37.1,26.8l-.7,2.2h-3.9l9.6-32.8h81.9v3.9l-65.5,127.5h23.8Z"/>
  </g>
  <g class="st4">
    <path class="st0" d="M2683.1,1008.6v593.7c0,16.7-13.5,30.2-30.2,30.2h-313.4c-16.7,0-30.2-13.5-30.2-30.2v-580.2c117.7,4,242.8.5,373.8-13.5h0Z"/>
    <path class="st0" d="M2871.6,981.7c76.2-13.7,149.4-30.2,219.6-48.9v669.5c0,16.7-13.5,30.2-30.2,30.2h-313.4c-16.7,0-30.2-13.5-30.2-30.2v-597.6c50.5-6.1,101.9-13.7,154.1-23h0Z"/>
    <path class="st0" d="M3125.7,923.3c136.5-38.5,261.2-85.3,373.8-136v815c0,16.7-13.5,30.2-30.2,30.2h-313.4c-16.7,0-30.2-13.5-30.2-30.2v-679h0Z"/>
    <path class="st0" d="M2244.7,606.8h-313.4c-16.7,0-30.2,13.5-30.2,30.2v340.2h0v625.1c0,16.7,13.5,30.2,30.2,30.2h313.4c16.7,0,30.2-13.5,30.2-30.2v-483.1h0v-482.3c0-16.7-13.5-30.2-30.2-30.2h0Z"/>
    <path class="st0" d="M3469.3,606.8h-313.4c-16.7,0-30.2,13.5-30.2,30.2v340.2h0v625.1c0,16.7,13.5,30.2,30.2,30.2h313.4c16.7,0,30.2-13.5,30.2-30.2v-483.1h0v-482.3c0-16.7-13.5-30.2-30.2-30.2h0Z"/>
    <path class="st0" d="M3061.1,606.8h-313.4c-16.7,0-30.2,13.5-30.2,30.2v340.2h0v625.1c0,16.7,13.5,30.2,30.2,30.2h313.4c16.7,0,30.2-13.5,30.2-30.2v-483.1h0v-482.3c0-16.7-13.5-30.2-30.2-30.2h0Z"/>
    <path class="st0" d="M2652.9,606.8h-313.4c-16.7,0-30.2,13.5-30.2,30.2v340.2h0v625.1c0,16.7,13.5,30.2,30.2,30.2h313.4c16.7,0,30.2-13.5,30.2-30.2v-483.1h0v-482.3c0-16.7-13.5-30.2-30.2-30.2h0Z"/>
    <g class="st3">
      <text class="st2" transform="translate(1960.7 1527.3)"><tspan x="0" y="0">R</tspan></text>
    </g>
    <g class="st3">
      <text class="st2" transform="translate(2441.2 1527.3)"><tspan x="0" y="0">I</tspan></text>
    </g>
    <g class="st3">
      <text class="st2" transform="translate(2780.9 1527.3)"><tspan x="0" y="0">T</tspan></text>
    </g>
    <g class="st3">
      <text class="st2" transform="translate(3208.9 1527.3)"><tspan x="0" y="0">Z</tspan></text>
    </g>
  </g>
</svg>