<?xml version="1.0" encoding="UTF-8"?>
<svg id="Layer_1" xmlns="http://www.w3.org/2000/svg" version="1.1" viewBox="0 0 3300.2 537.5">
  <!-- Generator: Adobe Illustrator 29.3.1, SVG Export Plug-In . SVG Version: 2.1.0 Build 151)  -->
  <defs>
    <style>
      .st0 {
        fill: #1d6265;
      }

      .st1, .st2 {
        fill: #fff;
      }

      .st3, .st2 {
        isolation: isolate;
      }

      .st3, .st4 {
        display: none;
      }

      .st2 {
        font-family: Adoha, Adoha;
        font-size: 404px;
      }

      .st5 {
        fill: #c4d92d;
      }
    </style>
  </defs>
  <g>
    <g>
      <path class="st0" d="M878.5,332.5l88.5-248h53l88.1,248h-57.6l-17.4-52.3h-80.1l-17.8,52.3h-56.7ZM968.7,234.6h48.9l-17.8-53c-2.7-8.4-5.7-18.1-6.7-24.1-1,5.7-3.7,15.1-6.7,24.1l-17.8,53h0Z"/>
      <path class="st0" d="M1109.8,208.8c0-77.4,49.3-128.4,123.3-128.4s106.6,35.5,114.3,91.2h-57.3c-7.4-24.8-28.5-38.9-58.3-38.9s-64.7,28.5-64.7,75.7,24.8,75.7,64.7,75.7,53-15.1,59.7-39.5h56.3c-8.7,55.3-55,91.8-117,91.8s-121-49.3-121-127.7h0Z"/>
      <path class="st0" d="M1370.2,208.8c0-77.4,49.3-128.4,123.3-128.4s106.6,35.5,114.3,91.2h-57.3c-7.4-24.8-28.5-38.9-58.3-38.9s-64.7,28.5-64.7,75.7,24.8,75.7,64.7,75.7,53-15.1,59.7-39.5h56.3c-8.7,55.3-55,91.8-117,91.8s-121-49.3-121-127.7h0Z"/>
      <path class="st0" d="M1751.6,336.5c-71.7,0-121-52.3-121-128s49.6-128.4,121.3-128.4,121.7,52.3,121.7,128-49.9,128.4-122,128.4ZM1752.3,132.4c-40.2,0-64.3,28.5-64.3,75.7s24.1,76.1,64.3,76.1,64-29.2,64-76.1-24.1-75.7-64-75.7h0Z"/>
      <path class="st0" d="M1909.8,84.5h54.3v151.1c0,31.2,17.1,48.3,47.6,48.3s48.3-17.8,48.3-48.3V84.5h54.3v154.8c0,59-40.2,97.2-102.6,97.2s-101.9-37.9-101.9-97.2V84.5Z"/>
      <path class="st0" d="M2164.2,332.5V84.5h53.6l104.6,157.9V84.5h53.6v248h-53.6l-104.6-157.5v157.5h-53.6Z"/>
      <path class="st0" d="M2408.5,84.5h195.1v50.3h-70.4v197.7h-54.3v-197.7h-70.4v-50.3h0Z"/>
      <path class="st0" d="M2690.3,332.5h-54.3V84.5h54.3v248Z"/>
      <path class="st0" d="M2742,332.5V84.5h53.6l104.6,157.9V84.5h53.6v248h-53.6l-104.6-157.5v157.5h-53.6Z"/>
      <path class="st0" d="M3048.9,210.8c0,49.9,28.2,74.7,67.7,74.7s59-22.1,61.3-47.9h-65.7v-47.6h116.6v142.4h-46.6l-3-22.5c-13.4,15.8-40.2,26.1-69.7,26.1-69.4,0-118-50.9-118-127s49.9-128.7,126.7-128.7,104.9,34.9,110.6,88.5h-57c-6.4-26.1-29.2-37.5-55-37.5-44.9,0-68,31.5-68,79.4h0Z"/>
    </g>
    <g>
      <path class="st0" d="M1192.5,486.6l41.7-112.6h11.3l42.2,112.6h-7.8l-11.9-31.6h-56.1l-11.7,31.6h-7.7ZM1214.4,448.1h51.1l-24.7-66c-.3-1-.8-2.1-1-2.9-.2.6-.6,2.1-1,2.9l-24.4,66Z"/>
      <path class="st0" d="M1363,486.6v-112.6h7.8l66,99.7v-99.7h7.6v112.6h-7.6l-66.1-100.1v100.1h-7.7Z"/>
      <path class="st0" d="M1531.5,486.6v-112.6h31.6c34.1,0,56.8,22.5,56.8,56.3s-22.7,56.3-56.8,56.3h-31.6ZM1539.2,381v98.6h23.9c29.7,0,49-19.3,49-49.3s-19-49.3-49-49.3h-23.9Z"/>
      <path class="st0" d="M1791.2,486.6l41.7-112.6h11.3l42.2,112.6h-7.8l-11.9-31.6h-56.1l-11.7,31.6h-7.7ZM1813,448.1h51.1l-24.7-66c-.3-1-.8-2.1-1-2.9-.2.6-.6,2.1-1,2.9l-24.4,66Z"/>
      <path class="st0" d="M1961.6,486.6v-112.6h31.6c34.1,0,56.8,22.5,56.8,56.3s-22.7,56.3-56.8,56.3h-31.6ZM1969.2,381v98.6h23.9c29.7,0,49-19.3,49-49.3s-19-49.3-49-49.3h-23.9Z"/>
      <path class="st0" d="M2113.4,374h8.1l32.5,84.2c2.4,6,4.6,11.9,7,19.2,2.4-7.5,5.4-15.7,6.8-19.3l32.4-84h7.8l-43.1,112.6h-8.1l-43.3-112.6h0Z"/>
      <path class="st0" d="M2290.1,486.6h-7.6v-112.6h7.6v112.6Z"/>
      <path class="st0" d="M2406.9,372.1c19.3,0,32.2,10.8,34.4,28.9h-7.9c-1.6-14-11.1-21.9-26.5-21.9s-29,9.2-29,23.3,6.5,17.9,19.3,21.2l20,5.1c17,4.3,26,14.4,26,28.9s-14.6,30.9-37.1,30.9-35.4-10.9-37.1-28.5h8.1c.6,12.8,12.2,21.4,29,21.4s29.5-9.2,29.5-23.6-6.5-18.6-19.8-21.9l-19.5-4.9c-17-4.3-26-14-26-28.5s14.4-30.3,36.6-30.3h0Z"/>
      <path class="st0" d="M2569.3,488.5c-31.2,0-53.1-24.1-53.1-58.2s22-58.2,53.1-58.2,53.3,24.1,53.3,58.2-22,58.2-53.3,58.2ZM2569.3,379.4c-26.6,0-45.4,20.9-45.4,50.9s18.7,50.9,45.4,50.9,45.5-20.9,45.5-50.9-18.7-50.9-45.5-50.9Z"/>
      <path class="st0" d="M2702.7,486.6v-112.6h41.5c21.4,0,34.9,12.4,34.9,31.6s-9.2,28.2-24.3,31.4l25.2,49.6h-8.6l-24.6-48.7h-36.6v48.7h-7.6.1ZM2710.3,430.9h34.3c17,0,26.8-9.5,26.8-25.1s-10.6-24.9-27.1-24.9h-33.9v50h-.1Z"/>
      <path class="st0" d="M2846.5,374h8.7l30.1,52c1.1,1.9,2.1,3.6,3.2,6,1.4-2.9,1-2.1,3.2-6l29.8-52h8.4l-37.6,64.4v48.2h-7.6v-48.2l-38.2-64.4h0Z"/>
    </g>
  </g>
  <g>
    <path class="st5" d="M265.7,39.2v204.2l-19.2,15-66.9-44.6-84.7,68.9V39.2c0-7.6,6.2-13.8,13.8-13.8h143.2c7.6,0,13.8,6.2,13.8,13.8Z"/>
    <path class="st0" d="M265.7,284.7v195.5c0,7.6-6.2,13.8-13.8,13.8H108.8c-7.6,0-13.8-6.2-13.8-13.8v-191.9l81.6-36.3,68.2,48.9,21-16.2h0Z"/>
    <path class="st5" d="M825.2,51.6h-45l23.5,14.8-135.1,93.2-14.1-41.5V39.2c0-7.6,6.2-13.8,13.8-13.8h143.2c7.6,0,13.8,6.2,13.8,13.8v12.4h0Z"/>
    <path class="st0" d="M825.2,78v402.2c0,7.6-6.2,13.8-13.8,13.8h-143.2c-7.6,0-13.8-6.2-13.8-13.8V194.6l12.5-8.1,158.3-108.6h0Z"/>
    <path class="st5" d="M638.7,39.2v43.6l-152.1,142.6-18.6-11.2V39.2c0-7.6,6.2-13.8,13.8-13.8h143.2c7.6,0,13.8,6.2,13.8,13.8h0Z"/>
    <path class="st0" d="M638.7,162.5v317.7c0,7.6-6.2,13.8-13.8,13.8h-143.2c-7.6,0-13.8-6.2-13.8-13.8v-232.9l24.2,12.4,133.9-123,12.6,25.8h.1Z"/>
    <path class="st5" d="M452.2,39.2v165.4l-46.8-28.2-30.2-18.2-93.7,72.9V39.2c0-7.6,6.2-13.8,13.8-13.8h143.2c7.6,0,13.8,6.2,13.8,13.8h0Z"/>
    <path class="st0" d="M452.2,239.2v241c0,7.6-6.2,13.8-13.8,13.8h-143.2c-7.6,0-13.8-6.2-13.8-13.8v-207.7l93.9-72.8,76.9,39.5Z"/>
    <path class="st1" d="M172.6,442.1v3.9h-46.3v-3.9h.6c6.6,0,11.1-4.4,11.1-11.1v-105.6c0-6.5-4.4-10.9-11.1-10.9h-.6v-3.9h65.9c24.7,0,41.2,16.4,41.2,41.9s-15.1,40-38.4,41.2l27.5,39.3c3.9,5.4,10.7,9,17.3,9h.6v3.9h-24.9c-6.6,0-13.5-3.7-17.3-9l-30.1-43.2h-6.8v37.3c0,6.6,4.4,11.1,10.9,11.1h.6-.2ZM172.8,389.9c22.5,0,37.5-14.8,37.5-38s-14.9-37.3-37.5-37.3h-11.6v75.3h11.6Z"/>
    <path class="st1" d="M392.1,442.1v3.9h-46.3v-3.9h.6c6.6,0,11.1-4.4,11.1-11.1v-105.6c0-6.5-4.4-10.9-11.1-10.9h-.6v-3.9h46.3v3.9h-.6c-6.5,0-10.9,4.4-10.9,10.9v105.6c0,6.6,4.4,11.1,10.9,11.1h.6Z"/>
    <path class="st1" d="M539.5,314.6c-17,0-31.7,10.7-37.1,26.8l-.7,2.2h-3.9l9.6-32.8h96l9.6,32.8h-3.9l-.7-2.2c-5.4-16.1-20.1-26.8-37.1-26.8h-4.2v116.4c0,6.6,4.4,11.1,11.1,11.1h.6v3.9h-46.5v-3.9h.7c6.5,0,10.9-4.4,10.9-11.1v-116.4h-4.4Z"/>
    <path class="st1" d="M745.9,442.1c17,0,31.7-10.7,37.1-26.9l.9-2h3.7l-9.6,32.8h-81.9v-3.9l65.5-127.5h-23.8c-17,0-31.7,10.5-37.1,26.8l-.7,2.2h-3.9l9.6-32.8h81.9v3.9l-65.5,127.5h23.8Z"/>
  </g>
  <g>
    <rect class="st0" x="875.8" y="428.7" width="251.5" height="10"/>
    <rect class="st0" x="2974.7" y="428.7" width="251.5" height="10"/>
  </g>
  <g class="st4">
    <path class="st0" d="M2683.1,1008.6v593.7c0,16.7-13.5,30.2-30.2,30.2h-313.4c-16.7,0-30.2-13.5-30.2-30.2v-580.2c117.7,4,242.8.5,373.8-13.5h0Z"/>
    <path class="st0" d="M2871.6,981.7c76.2-13.7,149.4-30.2,219.6-48.9v669.5c0,16.7-13.5,30.2-30.2,30.2h-313.4c-16.7,0-30.2-13.5-30.2-30.2v-597.6c50.5-6.1,101.9-13.7,154.1-23h0Z"/>
    <path class="st0" d="M3125.7,923.3c136.5-38.5,261.2-85.3,373.8-136v815c0,16.7-13.5,30.2-30.2,30.2h-313.4c-16.7,0-30.2-13.5-30.2-30.2v-679h0Z"/>
    <path class="st0" d="M2244.7,606.8h-313.4c-16.7,0-30.2,13.5-30.2,30.2v340.2h0v625.1c0,16.7,13.5,30.2,30.2,30.2h313.4c16.7,0,30.2-13.5,30.2-30.2v-483.1h0v-482.3c0-16.7-13.5-30.2-30.2-30.2h0Z"/>
    <path class="st0" d="M3469.3,606.8h-313.4c-16.7,0-30.2,13.5-30.2,30.2v340.2h0v625.1c0,16.7,13.5,30.2,30.2,30.2h313.4c16.7,0,30.2-13.5,30.2-30.2v-483.1h0v-482.3c0-16.7-13.5-30.2-30.2-30.2h0Z"/>
    <path class="st0" d="M3061.1,606.8h-313.4c-16.7,0-30.2,13.5-30.2,30.2v340.2h0v625.1c0,16.7,13.5,30.2,30.2,30.2h313.4c16.7,0,30.2-13.5,30.2-30.2v-483.1h0v-482.3c0-16.7-13.5-30.2-30.2-30.2h0Z"/>
    <path class="st0" d="M2652.9,606.8h-313.4c-16.7,0-30.2,13.5-30.2,30.2v340.2h0v625.1c0,16.7,13.5,30.2,30.2,30.2h313.4c16.7,0,30.2-13.5,30.2-30.2v-483.1h0v-482.3c0-16.7-13.5-30.2-30.2-30.2h0Z"/>
    <g class="st3">
      <text class="st2" transform="translate(1960.7 1527.3)"><tspan x="0" y="0">R</tspan></text>
    </g>
    <g class="st3">
      <text class="st2" transform="translate(2441.2 1527.3)"><tspan x="0" y="0">I</tspan></text>
    </g>
    <g class="st3">
      <text class="st2" transform="translate(2780.9 1527.3)"><tspan x="0" y="0">T</tspan></text>
    </g>
    <g class="st3">
      <text class="st2" transform="translate(3208.9 1527.3)"><tspan x="0" y="0">Z</tspan></text>
    </g>
  </g>
</svg>